# xmcd
#
# Track frame offsets: 
#        150
#        16842
#        36094
#        51572
#        68522
#        80846
#        96078
#        118456
#        138667
#        156477
#        177035
#        196772
#        205389
#        222672
#        240037
#        256903
#        273164
#        283765
#
# Disc length: 4012 seconds
#
# Revision: 4
# Processed by: cddbd v1.5.2PL0 Copyright (c) Steve Scherf et al.
# Submitted via: ExactAudioCopy v0.99pb5
#
DISCID=0c0faa12
DTITLE=De-Phazz - Natural Fake
DYEAR=2005
DGENRE=Acid Jazz
TTITLE0=Un Ange Passe
TTITLE1=Waste Of Words
TTITLE2=Astrud Astronette
TTITLE3=Stumble
TTITLE4=Depression Royale
TTITLE5=Eternity Is...
TTITLE6=Rise And Shine
TTITLE7=Excursion En Mer
TTITLE8=Love Is Natural
TTITLE9=Car Eats Town
TTITLE10=Keep It Simple
TTITLE11=Who The Pop Cares
TTITLE12=Backstreets Of My Mind
TTITLE13=Multicoloured Destiny
TTITLE14=Make Heaven My Home
TTITLE15=Message TTC
TTITLE16=Close To Jazz
TTITLE17=Garbo Goodbye
EXTD=YEAR: 2005\nPRODUCER: Pit Baumgartner, Phazz-a-delic\nMASTERING:H
EXTD=orst Schnebel, Studio 17\nPHOTO: Claus Geiss\nDESIGN: Olaf Becker
EXTD=\nCOMPSERV: Bernd Windisch
EXTT0=Baumgartner, Engelhardt, Dorsam
EXTT1=Baumgartner, Jones
EXTT2=Appleton, Engelhardt, Baumgartner
EXTT3=Baumgartner, Frierson
EXTT4=Baumgartner
EXTT5=Lahr, Baumgartner
EXTT6=Baumgartner, Frierson, Malz
EXTT7=Baumgartner, Engelhardt
EXTT8=Baumgartner
EXTT9=Appleton, Baumgartner
EXTT10=Appleton, Baumgartner, Engelhardt, Frierson
EXTT11=Baumgartner, Spaniol
EXTT12=Frierson, Baumgartner
EXTT13=Lahr, Baumgartner
EXTT14=Baumgartner
EXTT15=Baumgartner, Frierson
EXTT16=Baumgartner
EXTT17=Appleton, Baumgartner, Engelhardt
PLAYORDER=
